<?xml version="1.0" standalone="no"?>
<!DOCTYPE svg PUBLIC "-//W3C//DTD SVG 20010904//EN"
 "http://www.w3.org/TR/2001/REC-SVG-20010904/DTD/svg10.dtd">
<svg version="1.0" xmlns="http://www.w3.org/2000/svg"
 width="700.000000pt" height="700.000000pt" viewBox="0 0 700.000000 700.000000"
 preserveAspectRatio="xMidYMid meet">
<metadata>
Created by potrace 1.11, written by Peter Selinger 2001-2013
</metadata>
<g transform="translate(0.000000,700.000000) scale(0.100000,-0.100000)"
fill="#000000" stroke="none">
<path d="M940 4855 l0 -124 147 -3 147 -3 577 -1405 576 -1405 247 0 248 0
576 1407 577 1407 128 1 127 0 0 125 0 125 -460 0 -460 0 0 -125 0 -125 183
-2 184 -3 -411 -1003 c-263 -640 -414 -998 -419 -990 -5 7 -190 458 -412 1003
l-403 990 149 3 149 3 0 124 0 125 -725 0 -725 0 0 -125z"/>
<path d="M5205 4154 c-16 -2 -66 -9 -110 -15 -458 -61 -685 -285 -686 -679 -1
-309 129 -488 446 -611 44 -17 191 -60 326 -94 307 -79 398 -113 455 -170 49
-49 74 -118 74 -199 -2 -139 -90 -233 -255 -272 -92 -22 -296 -22 -385 -1
-215 52 -347 187 -396 404 l-16 73 -119 0 -119 0 2 -307 3 -306 105 -24 c526
-118 1027 -130 1380 -33 271 75 446 244 496 482 20 91 14 318 -10 391 -55 171
-156 279 -343 368 -114 55 -250 98 -519 168 -294 76 -337 92 -395 150 -51 51
-69 96 -69 176 1 168 163 265 447 265 245 0 423 -85 500 -241 24 -48 53 -150
53 -186 0 -23 2 -23 120 -23 l120 0 0 280 0 279 -37 10 c-285 73 -555 112
-823 116 -118 2 -228 1 -245 -1z"/>
</g>
</svg>
